<?xml version="1.0" encoding="UTF-8"?>
<svg id="Layer_2" data-name="Layer 2" xmlns="http://www.w3.org/2000/svg" viewBox="0 0 649.19 702.88">
  <defs>
    <style>
      .cls-1 {
        fill: #fffc85;
      }
    </style>
  </defs>
  <g id="Layer_1-2" data-name="Layer 1">
    <g>
      <path class="cls-1" d="M208.42.09c3.52-.17,5.92-.18,9.45.68,7.61,1.87,14.15,6.71,18.16,13.44,2.43,4.15,3.79,8.85,3.95,13.67.22,8.08-6.92,33.65-9.27,42.72,4.13,1.37,8.9,2.56,13.14,3.73,22.69-16.71,46.97-43.75,73.55-51.86,21.25-6.44,44.19-4.18,63.77,6.29,10.53,5.71,27.28,20.24,37.4,28.42l61.01,49.27,91.43,73.9,30.12,24.33c7.3,5.94,14.95,11.79,21.41,18.6,10.73,11.2,18.53,24.88,22.69,39.83,4.75,16.44,3.7,33.43,3.7,50.47v44.13s-.01,115.26-.01,115.26v77.17c0,25.9,3.04,50.31-10.75,73.57-13.26,22.36-35.08,35.24-60.71,38.36-4.89.59-8.73,11.25-11.03,15.33-6.58,11.76-17.66,20.33-30.7,23.76-17.7,4.78-34.89-.75-48.33-12.51-8.14-7.12-13.97-13.26-23.47-18.7-18.99-9.88-31.91-8.19-52.48-8.17l-47.81.05h-173.5s-53.75,0-53.75,0c-9.57,0-22.76.37-32.03-.47-16.11-1.54-31.31-8.14-43.46-18.83-27.84-24.52-27.85-55.35-26.57-89.14,1.11-29.41-6.5-22.12-23.82-40.32C1.8,503.92-.7,488.75.16,476.18c1.91-27.85,27.33-44.08,32.24-70.89,2.48-12.78,1.94-24.17,1.96-37.03v-53.38c0-11.31-.29-23.81.69-34.89,2.1-23.78,13.42-45.83,31-61.88,6.39-5.83,14.82-12.35,21.74-17.94l-45.1-53.68c-8.24-9.78-16.98-19.57-24.64-29.71-10.71-14.17-4.25-35.69,11.56-42.9,7.68-3.5,15.37-6.42,23.09-9.69l53.42-22.49,59.21-24.9C174.53,12.92,200.57,1.07,208.42.09Z"/>
      <path d="M259.65,458.44l.47-.03c4.98-.26,8.14,2.82,11.58,6.06,12.36,11.64,24.49,24.12,40.5,30.65,24.59,10.04,53.78,6.78,75.19-9.1,10.82-7.86,18.98-17.43,29.41-25.57,1.89-1.48,4.14-2.27,6.49-2.41,1.9.77,7.28,5.57,8.84,7.08,31.84,30.67,65.58,63.68,96.95,94.35,8.23,8.04,66.89,64.03,69.05,68.63-1.26,8.23-25.59,10.04-32.8,13.4-19.64,9.15-14.8,35.04-39.52,37.3-17.46,1.61-25.41-11.07-37.54-20.67-23.26-19.82-46.47-20.22-75.03-20.19l-43.48.05h-180.87l-51.32.04c-10.1.05-21.61.42-31.6-.4-5.22-.43-16.34-2.8-19.48-7.31-.45-.67-1.18-2.15-.57-2.94,8.05-10.45,21.4-22.29,30.67-31.34l55.96-54.49,57.31-55.89c6.43-6.22,22.98-23.83,29.78-27.22Z"/>
      <path d="M209.58,23.94c10.88-.65,5.12,12.7,3.65,18.63-2.22,8.33-4.4,16.69-6.28,25.1-2.02,9.03-4.41,18.59,6.55,22.45,10.47,3.69,21.21,6.37,31.78,9.87,20.03,6.59,39.62,14.44,58.67,23.5,32.49,15.35,62.66,35.21,89.6,58.99,44.78,39.8,76.25,88.75,80.02,149.92,1.25,20.33-2.47,41.76-16.68,57.17-3.12,3.39-15.41,16.28-20.43,16.58-.16.6-1.82-.81-1.82-.78-2.69-13.57-3.67-25.92-7.64-39.39-9.49-32.22-28.72-57.57-51.62-81.45-45.09-45.68-121.12-86.44-184.21-98.13-4.31-.8-7.83-.58-11.07,2.72-9.09,9.23-10.14,51.2-18.26,55.56-1.17.63-2.4.59-3.62.13-1.8-.69-3.97-3.36-5.26-4.83-6.19-7.04-12.04-14.4-18.12-21.53-21.59-25.28-43.03-50.68-64.31-76.21-8.64-10.28-17.25-20.55-26.12-30.63-2.73-3.1-5.57-6.6-7.38-10.29-1.41-3.11,1.86-5.71,4.36-6.77,6-2.53,12.09-4.95,18.07-7.47l38.04-16.06,112.07-47.09Z"/>
      <path d="M197.01,212.09c57.2,14.49,110.02,42.67,153.9,82.12,38.14,34.95,84.21,105.02,41.39,155.92-12.29,14.6-29.26,26.03-48.87,26.81-28.52,1.14-46.24-20.86-65.45-38.98-15.25-14.85-31.38-29.62-46.95-44.2l-96.64-90.23-34.83-32.46c-4.2-3.91-24.66-21.12-22.93-26.46,2.79-8.61,18.94-20.7,26.64-26.36,8.48,8.73,17.54,21.53,25.83,30.77,3.55,3.96,6.89,8.86,10.95,12.35,3.21,2.81,6.97,4.92,11.04,6.21,7.65,2.31,15.91,1.52,22.98-2.21,11.71-6.3,14.1-16.27,16.84-28.19,1.9-8.29,3.76-16.95,6.09-25.11Z"/>
      <path d="M62.1,270.15c6.73,3.14,30.19,26.4,37.07,32.83l65.44,61.33,44.93,41.85c9.26,8.58,18.63,17.29,27.53,26.07,5.65,5.58,3.66,9.53-1.12,14.43-10.6,10.88-22.3,21.93-33.14,32.43l-65.63,63.89c-8.12,7.76-64.41,64.52-69.51,65.59-1.07.22-1.75,0-2.63-.6-10.79-7.32-5.3-59.03-7.56-73.22-4.7-29.49-30.03-27.62-33.25-48.21-2.74-17.47,8.87-29.26,17.41-42.9,4.9-7.8,8.84-16.16,11.75-24.9,5.93-17.93,4.76-35.94,4.75-54.52l-.02-52.69c0-9.95-1.42-34.03,4-41.38Z"/>
      <path d="M620.39,270.3c4.5.99,4.38,12.02,4.49,15.64.36,12.2.21,24.47.21,36.67v84.01s0,119.23,0,119.23l.03,38.38c0,12.05.88,24.53-2.62,36.09-2.38,7.83-4.78,11.54-11.9,5.09-9.84-8.91-19.32-18.49-28.79-27.76l-51.37-50.09-59.45-57.73c-8.84-8.62-18.48-17.49-26.57-26.77-3.62-4.16.5-9.73,3.79-12.89,10.47-10.03,21.12-19.95,31.72-29.88l69.58-64.94,44.96-42.05c6.68-6.24,18.78-18.27,25.9-23.01Z"/>
      <path d="M334.4,43.12c28.68-4.03,45.41,13.32,65.64,29.74l50.65,40.95,99.2,80.05,32.01,25.96c6.36,5.16,12.84,10.2,18.91,15.73,8.04,7.32,7.45,12.06.07,19.38-8.38,8.34-17.2,16.24-25.83,24.28l-50.28,46.9c-5.6,5.49-11.66,10.76-17.46,16.07-2.22,2.03-5.32,4.86-8.38,3.67-1.89-2.46-1.97-19.66-2.45-24.74-2.11-20.31-7.17-40.2-15.02-59.04-31.83-76.5-104.52-131.53-178.06-164.99-10.75-4.89-21.56-8.85-32.43-13.33,6.55-7.6,35.45-30.25,44.94-35.3,5.36-2.85,12.45-4.49,18.48-5.33Z"/>
    </g>
  </g>
</svg>